<svg xmlns="http://www.w3.org/2000/svg" viewBox="0 0 192 256" clip-path="url(#clip)" width="192" height="256"><defs><clipPath id="clip" clipPathUnits="objectBoundingBox"><rect x="0" y="0" width="192" height="256"/></clipPath></defs><rect x="0" y="0" width="192" height="256" fill="rgb(103, 103, 88)"/><path d="M-2,62L52,62L52,229L-2,229Z" fill="rgb(238, 183, 159)" fill-opacity="0.61"/><path d="M36,188L125,188L125,259L36,259Z" fill="rgb(0, 0, 5)" fill-opacity="0.57"/><path d="M149,39L185,39L185,170L149,170Z" fill="rgb(231, 174, 148)" fill-opacity="0.53"/><path d="M49,39L154,39L154,203L49,203Z" fill="rgb(193, 0, 15)" fill-opacity="0.22"/><path d="M23,41L60,41L60,207L23,207Z" fill="rgb(255, 191, 154)" fill-opacity="0.31"/><path d="M-14,174L23,174L23,284L-14,284Z" fill="rgb(255, 249, 229)" fill-opacity="0.63"/><path d="M108,115L136,115L136,188L108,188Z" fill="rgb(12, 12, 24)" fill-opacity="0.52"/><path d="M168,122L198,122L198,283L168,283Z" fill="rgb(197, 155, 139)" fill-opacity="0.81"/><path d="M43,38L117,38L117,122L43,122Z" fill="rgb(192, 126, 99)" fill-opacity="0.43"/><path d="M-23,-7L19,-7L19,173L-23,173Z" fill="rgb(0, 3, 0)" fill-opacity="0.23"/><path d="M62,78L81,78L81,256L62,256Z" fill="rgb(5, 21, 40)" fill-opacity="0.32"/><path d="M76,75L124,75L124,87L76,87Z" fill="rgb(31, 41, 52)" fill-opacity="0.63"/><path d="M130,165L175,165L175,223L130,223Z" fill="rgb(160, 85, 72)" fill-opacity="0.90"/><path d="M-2,78L42,78L42,95L-2,95Z" fill="rgb(11, 54, 36)" fill-opacity="0.53"/><path d="M140,216L165,216L165,257L140,257Z" fill="rgb(44, 0, 9)" fill-opacity="0.48"/><path d="M129,31L143,31L143,171L129,171Z" fill="rgb(56, 34, 44)" fill-opacity="0.66"/><path d="M71,17L102,17L102,117L71,117Z" fill="rgb(216, 139, 108)" fill-opacity="0.32"/><path d="M56,170L123,170L123,265L56,265Z" fill="rgb(29, 37, 42)" fill-opacity="0.49"/><path d="M142,115L173,115L173,140L142,140Z" fill="rgb(255, 191, 155)" fill-opacity="0.53"/><path d="M149,155L209,155L209,199L149,199Z" fill="rgb(151, 83, 74)" fill-opacity="0.90"/><path d="M8,97L41,97L41,210L8,210Z" fill="rgb(255, 219, 191)" fill-opacity="0.29"/><path d="M170,-4L192,-4L192,121L170,121Z" fill="rgb(0, 71, 59)" fill-opacity="0.31"/><path d="M172,200L193,200L193,290L172,290Z" fill="rgb(255, 255, 237)" fill-opacity="0.45"/><path d="M158,75L189,75L189,163L158,163Z" fill="rgb(199, 196, 171)" fill-opacity="0.32"/><path d="M17,242L164,242L164,272L17,272Z" fill="rgb(15, 11, 13)" fill-opacity="0.43"/><path d="M126,184L146,184L146,244L126,244Z" fill="rgb(193, 95, 74)" fill-opacity="0.51"/><path d="M165,107L187,107L187,120L165,120Z" fill="rgb(0, 11, 1)" fill-opacity="0.35"/><path d="M90,28L129,28L129,43L90,43Z" fill="rgb(41, 10, 38)" fill-opacity="0.46"/><path d="M166,-8L201,-8L201,42L166,42Z" fill="rgb(0, 32, 24)" fill-opacity="0.44"/><path d="M27,56L66,56L66,82L27,82Z" fill="rgb(241, 237, 193)" fill-opacity="0.32"/><path d="M92,4L148,4L148,20L92,20Z" fill="rgb(253, 243, 181)" fill-opacity="0.31"/><path d="M-5,15L37,15L37,44L-5,44Z" fill="rgb(0, 17, 2)" fill-opacity="0.36"/><path d="M100,94L126,100L115,74Z" fill="rgb(25, 36, 45)" fill-opacity="0.66"/><path d="M46,85L64,85L64,190L46,190Z" fill="rgb(213, 41, 60)" fill-opacity="0.28"/><path d="M25,-31L88,-31L88,20L25,20Z" fill="rgb(65, 87, 62)" fill-opacity="0.85"/><path d="M24,172L38,186L21,233Z" fill="rgb(241, 251, 235)" fill-opacity="0.50"/><path d="M85,89L103,89L103,166L85,166Z" fill="rgb(255, 133, 106)" fill-opacity="0.31"/><path d="M115,-15L127,-15L127,29L115,29Z" fill="rgb(85, 82, 55)" fill-opacity="0.50"/><path d="M26,214L53,214L53,265L26,265Z" fill="rgb(43, 6, 15)" fill-opacity="0.43"/><path d="M65,42L126,42L126,73L65,73Z" fill="rgb(174, 108, 89)" fill-opacity="0.87"/><path d="M157,11L120,-8L191,3Z" fill="rgb(9, 41, 52)" fill-opacity="0.65"/><path d="M189,138L219,234L182,190Z" fill="rgb(41, 40, 43)" fill-opacity="0.41"/><path d="M59,91L84,124L85,199Z" fill="rgb(42, 38, 47)" fill-opacity="0.62"/><path d="M155,73L213,104L179,97Z" fill="rgb(237, 230, 207)" fill-opacity="0.68"/><path d="M97,88L64,84L84,37Z" fill="rgb(6, 5, 37)" fill-opacity="0.30"/><path d="M164,224L167,238L171,204Z" fill="rgb(9, 19, 33)" fill-opacity="0.51"/><path d="M84,54L132,54L132,69L84,69Z" fill="rgb(248, 158, 111)" fill-opacity="0.31"/><path d="M153,95L152,68L101,93Z" fill="rgb(48, 38, 48)" fill-opacity="0.56"/><path d="M66,28L83,28L83,47L66,47Z" fill="rgb(244, 213, 151)" fill-opacity="0.49"/><path d="M117,128L87,185L161,154Z" fill="rgb(58, 34, 41)" fill-opacity="0.55"/><path d="M-43,174L21,174L21,249L-43,249Z" fill="rgb(225, 215, 195)" fill-opacity="0.79"/><path d="M-11,135L28,135L28,175L-11,175Z" fill="rgb(191, 84, 59)" fill-opacity="0.27"/><path d="M121,229L140,229L140,286L121,286Z" fill="rgb(132, 58, 55)" fill-opacity="0.62"/><path d="M71,1L88,9L93,-7Z" fill="rgb(140, 166, 127)" fill-opacity="0.51"/><path d="M152,35L170,35L170,155L152,155Z" fill="rgb(230, 178, 144)" fill-opacity="0.31"/><path d="M74,89L95,89L95,110L74,110Z" fill="rgb(219, 149, 111)" fill-opacity="0.72"/><path d="M125,103L134,103L134,175L125,175Z" fill="rgb(48, 38, 42)" fill-opacity="0.81"/><path d="M32,103L-7,97L12,89Z" fill="rgb(255, 249, 192)" fill-opacity="0.39"/><path d="M15,134L55,134L55,156L15,156Z" fill="rgb(222, 184, 156)" fill-opacity="0.43"/><path d="M73,65L82,41L119,19Z" fill="rgb(76, 51, 61)" fill-opacity="0.68"/><path d="M188,44L197,59L180,56Z" fill="rgb(205, 166, 95)" fill-opacity="0.54"/><path d="M60,169L92,169L92,217L60,217Z" fill="rgb(86, 66, 70)" fill-opacity="0.37"/><path d="M23,19L48,21L49,37Z" fill="rgb(30, 52, 27)" fill-opacity="0.44"/><path d="M177,228L173,200L136,213Z" fill="rgb(102, 63, 62)" fill-opacity="0.37"/><path d="M124,13L153,13L153,34L124,34Z" fill="rgb(224, 178, 98)" fill-opacity="0.23"/><path d="M152,22L163,22L162,-8Z" fill="rgb(6, 39, 35)" fill-opacity="0.47"/><path d="M13,266L62,184L39,183Z" fill="rgb(169, 60, 55)" fill-opacity="0.46"/><path d="M165,244L181,198L165,281Z" fill="rgb(237, 223, 203)" fill-opacity="0.54"/><path d="M24,83L-42,49L6,87Z" fill="rgb(9, 38, 31)" fill-opacity="0.57"/><path d="M126,105L112,105L130,93Z" fill="rgb(240, 118, 92)" fill-opacity="0.50"/><path d="M99,0L131,-7L37,87Z" fill="rgb(223, 183, 142)" fill-opacity="0.45"/><path d="M26,29L60,29L60,58L26,58Z" fill="rgb(125, 153, 66)" fill-opacity="0.41"/><path d="M146,43L162,29L167,90Z" fill="rgb(207, 199, 167)" fill-opacity="0.46"/><path d="M173,63L172,35L180,55Z" fill="rgb(5, 43, 26)" fill-opacity="0.43"/><path d="M44,200L122,200L122,272L44,272Z" fill="rgb(22, 37, 37)" fill-opacity="0.32"/><path d="M132,23L154,93L109,27Z" fill="rgb(56, 38, 51)" fill-opacity="0.50"/><path d="M80,66L102,76L82,96Z" fill="rgb(18, 35, 48)" fill-opacity="0.42"/><path d="M19,83L45,83L45,98L19,98Z" fill="rgb(61, 81, 74)" fill-opacity="0.42"/><path d="M21,5L13,11L27,16Z" fill="rgb(173, 150, 89)" fill-opacity="0.55"/><path d="M29,79L53,81L45,66Z" fill="rgb(216, 210, 192)" fill-opacity="0.52"/><path d="M168,135L190,135L190,169L168,169Z" fill="rgb(189, 135, 111)" fill-opacity="0.39"/><path d="M44,106L76,106L76,130L44,130Z" fill="rgb(58, 0, 23)" fill-opacity="0.24"/><path d="M133,171L156,171L156,203L133,203Z" fill="rgb(190, 108, 84)" fill-opacity="0.56"/><path d="M90,99L112,99L112,138L90,138Z" fill="rgb(196, 109, 89)" fill-opacity="0.43"/><path d="M158,117L175,117L175,128L158,128Z" fill="rgb(236, 226, 186)" fill-opacity="0.44"/><path d="M29,57L26,42L2,48Z" fill="rgb(119, 114, 70)" fill-opacity="0.81"/><path d="M110,128L135,94L141,107Z" fill="rgb(28, 35, 41)" fill-opacity="0.47"/><path d="M104,17L110,22L77,43Z" fill="rgb(202, 84, 77)" fill-opacity="0.53"/><path d="M95,177L126,177L126,218L95,218Z" fill="rgb(43, 41, 43)" fill-opacity="0.75"/><path d="M152,126L164,126L164,177L152,177Z" fill="rgb(222, 11, 14)" fill-opacity="0.16"/><path d="M147,140L139,106L133,143Z" fill="rgb(160, 47, 56)" fill-opacity="0.52"/><path d="M70,130L87,130L87,226L70,226Z" fill="rgb(64, 48, 53)" fill-opacity="0.42"/><path d="M75,109L85,127L103,122Z" fill="rgb(226, 154, 108)" fill-opacity="0.53"/><path d="M157,96L185,104L221,105Z" fill="rgb(30, 107, 53)" fill-opacity="0.43"/><path d="M51,27L38,29L46,36Z" fill="rgb(34, 44, 56)" fill-opacity="0.55"/><path d="M167,105L227,141L154,108Z" fill="rgb(22, 24, 18)" fill-opacity="0.25"/><path d="M130,145L160,89L154,62Z" fill="rgb(181, 53, 59)" fill-opacity="0.33"/><path d="M13,71L13,54L21,70Z" fill="rgb(51, 73, 69)" fill-opacity="0.59"/><path d="M31,197L46,204L49,172Z" fill="rgb(224, 142, 109)" fill-opacity="0.50"/><path d="M143,118L152,87L168,122Z" fill="rgb(216, 121, 84)" fill-opacity="0.45"/></svg>
