<svg xmlns="http://www.w3.org/2000/svg" viewBox="0 0 192 256" clip-path="url(#clip)" width="192" height="256"><defs><clipPath id="clip" clipPathUnits="objectBoundingBox"><rect x="0" y="0" width="192" height="256"/></clipPath></defs><rect x="0" y="0" width="192" height="256" fill="rgb(103, 103, 88)"/><path d="M8,295L85,18L-74,170Z" fill="rgb(235, 184, 158)" fill-opacity="0.70"/><path d="M108,353L143,85L13,255Z" fill="rgb(26, 10, 20)" fill-opacity="0.64"/><path d="M196,125L176,184L135,108Z" fill="rgb(253, 174, 147)" fill-opacity="0.62"/><path d="M171,205L157,326L262,171Z" fill="rgb(249, 223, 204)" fill-opacity="0.72"/><path d="M128,-12L169,110L173,47Z" fill="rgb(203, 185, 145)" fill-opacity="0.63"/><path d="M14,66L24,110L78,21Z" fill="rgb(151, 146, 116)" fill-opacity="0.98"/><path d="M33,222L168,103L52,74Z" fill="rgb(195, 58, 59)" fill-opacity="0.36"/><path d="M144,111L170,118L157,83Z" fill="rgb(240, 156, 120)" fill-opacity="0.56"/><path d="M158,75L157,94L238,108Z" fill="rgb(225, 228, 213)" fill-opacity="0.57"/><path d="M98,-5L128,4L73,49Z" fill="rgb(208, 170, 131)" fill-opacity="0.61"/><path d="M7,266L50,166L-92,200Z" fill="rgb(254, 255, 234)" fill-opacity="0.51"/><path d="M5,-5L51,29L-48,73Z" fill="rgb(39, 54, 34)" fill-opacity="0.65"/><path d="M45,106L77,105L104,236Z" fill="rgb(67, 43, 51)" fill-opacity="0.69"/><path d="M57,60L137,82L116,38Z" fill="rgb(222, 108, 85)" fill-opacity="0.57"/><path d="M101,163L67,91L102,86Z" fill="rgb(236, 147, 109)" fill-opacity="0.54"/><path d="M41,244L23,231L33,205Z" fill="rgb(138, 36, 36)" fill-opacity="0.53"/><path d="M58,90L16,97L-9,71Z" fill="rgb(20, 45, 35)" fill-opacity="0.52"/><path d="M204,-108L197,46L146,29Z" fill="rgb(0, 43, 30)" fill-opacity="0.50"/><path d="M155,84L131,24L124,163Z" fill="rgb(63, 30, 42)" fill-opacity="0.64"/><path d="M174,195L89,289L159,285Z" fill="rgb(78, 39, 40)" fill-opacity="0.79"/><path d="M128,174L122,254L282,105Z" fill="rgb(189, 78, 66)" fill-opacity="0.56"/><path d="M24,9L93,-67L70,18Z" fill="rgb(50, 74, 50)" fill-opacity="0.80"/><path d="M120,20L87,36L145,50Z" fill="rgb(51, 14, 39)" fill-opacity="0.50"/><path d="M17,65L56,93L46,60Z" fill="rgb(247, 224, 204)" fill-opacity="0.44"/><path d="M62,137L19,111L43,204Z" fill="rgb(252, 178, 147)" fill-opacity="0.49"/><path d="M112,119L142,101L114,153Z" fill="rgb(8, 35, 40)" fill-opacity="0.50"/><path d="M6,97L22,176L-130,138Z" fill="rgb(149, 87, 66)" fill-opacity="0.56"/><path d="M129,81L73,70L123,105Z" fill="rgb(29, 21, 36)" fill-opacity="0.49"/><path d="M154,153L134,162L127,121Z" fill="rgb(46, 8, 23)" fill-opacity="0.53"/><path d="M42,119L61,75L62,169Z" fill="rgb(202, 75, 75)" fill-opacity="0.57"/><path d="M139,-10L107,8L154,40Z" fill="rgb(130, 138, 92)" fill-opacity="0.65"/><path d="M169,56L186,12L175,60Z" fill="rgb(32, 63, 40)" fill-opacity="0.57"/><path d="M79,164L109,100L103,176Z" fill="rgb(186, 94, 84)" fill-opacity="0.44"/><path d="M117,116L71,245L152,153Z" fill="rgb(52, 39, 43)" fill-opacity="0.72"/><path d="M173,199L205,202L185,258Z" fill="rgb(239, 233, 211)" fill-opacity="0.44"/><path d="M155,132L169,182L134,123Z" fill="rgb(232, 78, 73)" fill-opacity="0.44"/><path d="M177,74L188,81L156,76Z" fill="rgb(220, 225, 218)" fill-opacity="0.54"/><path d="M101,90L87,95L99,77Z" fill="rgb(244, 161, 119)" fill-opacity="0.48"/><path d="M99,77L56,107L72,45Z" fill="rgb(83, 20, 38)" fill-opacity="0.30"/><path d="M173,13L158,12L181,21Z" fill="rgb(142, 165, 126)" fill-opacity="0.48"/><path d="M165,114L140,122L204,136Z" fill="rgb(226, 213, 178)" fill-opacity="0.58"/><path d="M101,36L86,37L71,70Z" fill="rgb(69, 34, 52)" fill-opacity="0.54"/><path d="M75,76L82,93L101,78Z" fill="rgb(47, 49, 57)" fill-opacity="0.61"/><path d="M183,182L198,219L192,157Z" fill="rgb(43, 39, 48)" fill-opacity="0.55"/><path d="M63,8L56,64L79,-10Z" fill="rgb(49, 45, 52)" fill-opacity="0.41"/><path d="M26,4L24,15L9,12Z" fill="rgb(205, 172, 107)" fill-opacity="0.44"/><path d="M186,76L149,104L185,108Z" fill="rgb(188, 210, 175)" fill-opacity="0.37"/><path d="M145,47L156,102L166,20Z" fill="rgb(255, 150, 128)" fill-opacity="0.36"/><path d="M142,19L156,77L140,57Z" fill="rgb(164, 60, 56)" fill-opacity="0.56"/><path d="M13,96L41,99L47,172Z" fill="rgb(223, 190, 164)" fill-opacity="0.71"/></svg>
